<svg height="100" viewBox="0 0 100 100" width="100" xmlns="http://www.w3.org/2000/svg"><g fill="#000" fill-rule="evenodd"><path d="m43.84 46.76a5.35 5.35 0 1 1 5.46-5.34 5.41 5.41 0 0 1 -5.46 5.34z"/><path d="m77.33 55.7-7.27-10.8v-.9a24 24 0 0 0 -23.87-24 22 22 0 0 0 -5.67.7 23.89 23.89 0 0 0 -18.21 23.3 21.92 21.92 0 0 0 3.58 12.7c4.18 6 7 10.8 5.27 17.3a4.58 4.58 0 0 0 .9 4.2 4.43 4.43 0 0 0 3.68 1.8h19.6a4.72 4.72 0 0 0 4.66-3.8 5 5 0 0 0 .2-1.2 2.37 2.37 0 0 1 2.39-2h1.41a4.72 4.72 0 0 0 4.68-3.4 41.31 41.31 0 0 0 1.48-9.6h5.17a2.78 2.78 0 0 0 2.19-1.6 2.86 2.86 0 0 0 -.19-2.7zm-19.84-8.37-1 1.57a2.22 2.22 0 0 1 -1.76.94 2.38 2.38 0 0 1 -.72-.16l-2.65-1a11.64 11.64 0 0 1 -3.85 2.2l-.48 2.91a2 2 0 0 1 -2 1.65h-2a2 2 0 0 1 -2-1.65l-.48-2.91a10 10 0 0 1 -3.69-2l-2.81 1a2.38 2.38 0 0 1 -.72.16 2.1 2.1 0 0 1 -1.76-1l-1-1.65a1.94 1.94 0 0 1 .48-2.51l2.33-1.89a10.11 10.11 0 0 1 -.24-2.12 9.41 9.41 0 0 1 .24-2l-2.28-1.99a1.92 1.92 0 0 1 -.48-2.51l1-1.65a2 2 0 0 1 1.76-1 2.38 2.38 0 0 1 .72.16l2.81 1a11.52 11.52 0 0 1 3.69-2.12l.4-2.76a1.91 1.91 0 0 1 2-1.57h2a1.92 1.92 0 0 1 2 1.49l.48 2.83a11.31 11.31 0 0 1 3.69 2l2.81-1a2.38 2.38 0 0 1 .72-.16 2.1 2.1 0 0 1 1.76 1l1 1.65a2 2 0 0 1 -.46 2.56l-2.33 1.89a9.56 9.56 0 0 1 .24 2.12 9.41 9.41 0 0 1 -.24 2l2.33 1.93a2 2 0 0 1 .49 2.59z"/></g></svg>